# xmcd CD database file
#
# Track frame offsets:
#	150
#	18400
#	41020
#	58705
#	73310
#	90555
#	115595
#	133102
#	156005
#	171647
#	192045
#
# Disc length: 2842 seconds
#
# Revision: 1
# Processed by: cddbd v1.5.1PL0 Copyright (c) Steve Scherf et al.
# Submitted via: cdripper 1.0.7
#
DISCID=970b180b
DTITLE=The Sidemen - When the Sun Goes Down
DYEAR=1994
DGENRE=Blues
TTITLE0=When the Sun Goes Down
TTITLE1=Such is the Situation
TTITLE2=Mapped Out
TTITLE3=Day Time Loves
TTITLE4=Dont Mess With My Business
TTITLE5=The Woman I Love
TTITLE6=At Last
TTITLE7=Mighty Good
TTITLE8=Second Street
TTITLE9=Ready to Go
TTITLE10=My Good Luck Is back Again
EXTD=The Sidemen YEAR: 1994
EXTT0=
EXTT1=
EXTT2=
EXTT3=
EXTT4=
EXTT5=
EXTT6=
EXTT7=
EXTT8=
EXTT9=
EXTT10=
PLAYORDER=
